<svg xmlns="http://www.w3.org/2000/svg" width="193" height="27" viewBox="0 0 193 27">
  <metadata><?xpacket begin="﻿" id="W5M0MpCehiHzreSzNTczkc9d"?>
<x:xmpmeta xmlns:x="adobe:ns:meta/" x:xmptk="Adobe XMP Core 5.6-c138 79.159824, 2016/09/14-01:09:01        ">
   <rdf:RDF xmlns:rdf="http://www.w3.org/1999/02/22-rdf-syntax-ns#">
      <rdf:Description rdf:about=""/>
   </rdf:RDF>
</x:xmpmeta>
                                                                                                    
                                                                                                    
                                                                                                    
                                                                                                    
                                                                                                    
                                                                                                    
                                                                                                    
                                                                                                    
                                                                                                    
                                                                                                    
                                                                                                    
                                                                                                    
                                                                                                    
                                                                                                    
                                                                                                    
                                                                                                    
                                                                                                    
                                                                                                    
                                                                                                    
                                                                                                    
                           
<?xpacket end="w"?></metadata>
<defs>
    <style>
      .cls-1 {
        fill: #18ca3e;
      }

      .cls-1, .cls-2 {
        fill-rule: evenodd;
      }

      .cls-2 {
        fill: #fff;
      }
    </style>
  </defs>
  <path id="Car" class="cls-1" d="M18.575,18.607l-3.8-3.364a6.126,6.126,0,0,1-4.35,2.059A3.963,3.963,0,0,1,7.5,16.171a4.115,4.115,0,0,1-1.131-3.045,6.835,6.835,0,0,1,1.783-4.7,5.537,5.537,0,0,1,4.278-2,4.266,4.266,0,0,1,4.089,2.61l4.872-2.61a7.6,7.6,0,0,0-3.06-3.77,9.412,9.412,0,0,0-5.176-1.363,12.487,12.487,0,0,0-6.7,1.827,12.308,12.308,0,0,0-4.466,4.6A11.989,11.989,0,0,0,.479,13.532a8.288,8.288,0,0,0,2.668,6.453,9.914,9.914,0,0,0,6.931,2.421,10.861,10.861,0,0,0,8.5-3.8h0Zm8.7,1.711L26.84,22h5.423l2.32-8.642A8.973,8.973,0,0,0,34.9,11.1a4.322,4.322,0,0,0-1.755-3.683,8.724,8.724,0,0,0-5.234-1.305,18.578,18.578,0,0,0-6.177.957l0.783,4a11.367,11.367,0,0,1,4.234-.783q2.7,0,2.7,1.682a4.771,4.771,0,0,1-.145.957l-0.058.2a13.59,13.59,0,0,0-3.973-.609,7.851,7.851,0,0,0-5.017,1.494,4.888,4.888,0,0,0-1.885,4.046,4.083,4.083,0,0,0,1.218,3.1,4.394,4.394,0,0,0,3.161,1.16,6.58,6.58,0,0,0,4.524-2h0Zm-3.1-1.783a1.353,1.353,0,0,1-.435-1.059,1.983,1.983,0,0,1,.783-1.653,3.31,3.31,0,0,1,2.088-.609,6.485,6.485,0,0,1,2.059.348l-0.145.522a3.973,3.973,0,0,1-1.247,2.03,2.954,2.954,0,0,1-1.972.812A1.626,1.626,0,0,1,24.172,18.535ZM38.816,22l1.276-4.727q1.42-5.422,5.945-5.423H46.5l1.566-5.8q-3.422-.232-5.887,3.422l0.841-3.161h-5.51L33.306,22h5.51Z"/>
  <path id="WP" class="cls-2" d="M178.937,10.489l2.45-3.98,0.32,3.98h1.74l4.23-7.05h-2.11l-2.3,4.05L183,3.419h-1.68l-2.42,4.07-0.13-4.05h-2.01l0.45,7.05h1.73Zm8.9-.05,0.54-2.01h1.15a3.921,3.921,0,0,0,2.525-.765,2.5,2.5,0,0,0,.955-2.055,1.937,1.937,0,0,0-.55-1.43,3.3,3.3,0,0,0-2.4-.74h-2.29l-1.88,7h1.95Zm1.43-5.37h0.72a1.131,1.131,0,0,1,.83.27,0.668,0.668,0,0,1,.2.49,0.939,0.939,0,0,1-.4.8,1.839,1.839,0,0,1-1.11.295h-0.73Z"/>
  <path id="Magazine" class="cls-2" d="M52.22,22l3.1-11.6,2.987,7.888h0.116l7.279-7.946L62.6,22h5.655L73.709,1.7H67.387l-6.9,7.859L57.788,1.7H52.1L46.652,22H52.22Zm27.086-1.682L78.871,22h5.423l2.32-8.642a8.973,8.973,0,0,0,.319-2.262,4.322,4.322,0,0,0-1.755-3.683,8.724,8.724,0,0,0-5.234-1.305,18.578,18.578,0,0,0-6.177.957l0.783,4a11.367,11.367,0,0,1,4.234-.783q2.7,0,2.7,1.682a4.771,4.771,0,0,1-.145.957l-0.058.2a13.59,13.59,0,0,0-3.973-.609,7.851,7.851,0,0,0-5.017,1.494A4.888,4.888,0,0,0,70.4,18.056a4.083,4.083,0,0,0,1.218,3.1,4.394,4.394,0,0,0,3.161,1.16,6.58,6.58,0,0,0,4.524-2h0Zm-3.1-1.783a1.353,1.353,0,0,1-.435-1.059,1.983,1.983,0,0,1,.783-1.653,3.31,3.31,0,0,1,2.088-.609,6.485,6.485,0,0,1,2.059.348l-0.145.522a3.973,3.973,0,0,1-1.247,2.03,2.953,2.953,0,0,1-1.972.812A1.626,1.626,0,0,1,76.2,18.535Zm23.664,5.872a12.521,12.521,0,0,0,2.784-5.626l3.335-12.47h-5.51L99.9,8.544A5.247,5.247,0,0,0,95.14,5.992,7.471,7.471,0,0,0,89.3,8.733,9.5,9.5,0,0,0,86.9,15.185a5,5,0,0,0,1.668,3.958,5.762,5.762,0,0,0,3.93,1.465,6.983,6.983,0,0,0,4.756-1.914l-0.087.348a6.048,6.048,0,0,1-1.3,2.523,4.393,4.393,0,0,1-3.248,1.16A10.557,10.557,0,0,1,87.049,21.1l-2.465,3.451A13.856,13.856,0,0,0,88.368,26.1a17.47,17.47,0,0,0,4.481.595q4.756,0,7.018-2.291h0Zm-6.786-8.424a2.289,2.289,0,0,1-.7-1.755,3.928,3.928,0,0,1,1.058-2.711,3.36,3.36,0,0,1,2.6-1.174,2.6,2.6,0,0,1,1.9.7,2.407,2.407,0,0,1,.71,1.8,3.765,3.765,0,0,1-1.073,2.653,3.473,3.473,0,0,1-2.639,1.146A2.6,2.6,0,0,1,93.081,15.983Zm19.43,4.336L112.075,22H117.5l2.32-8.642a8.95,8.95,0,0,0,.319-2.262,4.323,4.323,0,0,0-1.754-3.683,8.725,8.725,0,0,0-5.235-1.305,18.578,18.578,0,0,0-6.177.957l0.783,4a11.369,11.369,0,0,1,4.234-.783q2.7,0,2.7,1.682a4.734,4.734,0,0,1-.145.957l-0.058.2a13.588,13.588,0,0,0-3.973-.609,7.852,7.852,0,0,0-5.017,1.494,4.888,4.888,0,0,0-1.885,4.046,4.083,4.083,0,0,0,1.218,3.1,4.395,4.395,0,0,0,3.161,1.16,6.58,6.58,0,0,0,4.524-2h0Zm-3.1-1.783a1.353,1.353,0,0,1-.435-1.059,1.983,1.983,0,0,1,.783-1.653,3.31,3.31,0,0,1,2.088-.609,6.483,6.483,0,0,1,2.059.348l-0.145.522a3.97,3.97,0,0,1-1.247,2.03,2.954,2.954,0,0,1-1.972.812A1.626,1.626,0,0,1,109.407,18.535ZM132.4,22l1.16-4.379h-7.221l9.251-7.685,0.957-3.625H122.457L121.3,10.69h6.9l-9.222,7.685L117.991,22H132.4Zm6.206,0,4.2-15.689h-5.51L133.1,22h5.51Zm4.727-17.11,1.1-4.06H138.7l-1.1,4.06h5.742ZM145.483,22l2.233-8.294q0.783-2.842,2.929-2.842a1.5,1.5,0,0,1,1.74,1.653,4.621,4.621,0,0,1-.174,1.276L150.007,22h5.51l2.262-8.526a11.5,11.5,0,0,0,.464-2.813,4.739,4.739,0,0,0-1.218-3.436,4.419,4.419,0,0,0-3.335-1.261,6.09,6.09,0,0,0-4.5,2.146l0.493-1.8h-5.51L139.973,22h5.51Zm26.332-1.972-2.552-3.016a5.688,5.688,0,0,1-3.335,1.247q-2.727,0-2.929-2.581H173.41a9.282,9.282,0,0,0,.609-3.219,6.631,6.631,0,0,0-1.7-4.625,6.374,6.374,0,0,0-4.973-1.87,8.78,8.78,0,0,0-6.786,2.885,9.463,9.463,0,0,0-2.639,6.569,6.613,6.613,0,0,0,2.015,5.075,7.683,7.683,0,0,0,5.467,1.885,9.438,9.438,0,0,0,6.409-2.349h0Zm-6.975-9.265a3.442,3.442,0,0,1,2.132-.739,2.128,2.128,0,0,1,1.595.566,1.974,1.974,0,0,1,.551,1.435,2.671,2.671,0,0,1-.145.841h-5.6A4.46,4.46,0,0,1,164.84,10.763Z"/>
</svg>
